# xmcd
# Track frame offsets:
# 150
# 21639
# 38754
# 61929
# 79014
# 97763
# 115056
# 134803
# 147847
# 167257
# 186602
# 212304
# 230938
# 248244
# 267552
# 283631
#
# Disc length: 4002 seconds
# Revision: 0
# Processed by: cddbd v1.4PL0 Copyright (c) Steve Scherf et al.
# Submitted via: VisiTrax 2.9.5.181 - For more info visit www.synapsa.com
#
DISCID=ea0fa010
DTITLE=Various Artist - Karaoke Bay-Great Country Love Songs
DYEAR=2000
DGENRE=Country
TTITLE0=Lonestar - Amazed
TTITLE1=Dixie Chicks - You Were Mine
TTITLE2=Sara Evans - I Could Not Ask For More
TTITLE3=Leann Rimes - You Light Up My Life
TTITLE4=Michael Englilsh - Your Love Amazes Me
TTITLE5=Shania Twain - You're Still The One
TTITLE6=John Michael Montgomery - I Swear
TTITLE7=Patsy Cline - Crazy
TTITLE8=Vince Gill - When Love Finds You
TTITLE9=Faith Hill - Breathe
TTITLE10=Bob Carlisle - Butterfly Kisses
TTITLE11=Leann Rimes - Unchained Melody
TTITLE12=Garth Brooks - The Dance
TTITLE13=Clint Black - When I Said I Do
TTITLE14=Travis Tritt - Can I Trust You With My Heart
TTITLE15=Lonestar - What About Now
EXTD=cd+G Lyrics on screen.  Not Original artists, but profesionally produc
EXTD=ed renditions.  Artis's names are included for reference only
EXTT0=
EXTT1=
EXTT2=
EXTT3=
EXTT4=
EXTT5=
EXTT6=
EXTT7=
EXTT8=
EXTT9=
EXTT10=
EXTT11=
EXTT12=
EXTT13=
EXTT14=
EXTT15=
PLAYORDER=
